<svg width="18" height="18" viewBox="0 0 18 18" fill="none" xmlns="http://www.w3.org/2000/svg">
<path d="M10.5919 7.40957C11.4707 8.28834 11.4707 9.71313 10.5919 10.5919C9.71313 11.4707 8.28834 11.4707 7.40957 10.5919C6.53079 9.71313 6.53079 8.28834 7.40957 7.40957C8.28834 6.53079 9.71313 6.53079 10.5919 7.40957" stroke="#0D5EAF" stroke-width="1.5" stroke-linecap="round" stroke-linejoin="round"/>
<path fill-rule="evenodd" clip-rule="evenodd" d="M12.1361 14.0451V14.0451C12.5134 14.4224 13.1262 14.4224 13.5035 14.0451L14.0451 13.5035C14.4224 13.1262 14.4224 12.5134 14.0451 12.1361V12.1361C13.7585 11.8496 13.6745 11.4198 13.832 11.0462C13.8485 11.0065 13.865 10.9667 13.8808 10.9262C14.0181 10.5767 14.3586 10.3517 14.7336 10.3517H14.7839C15.318 10.3517 15.7508 9.91885 15.7508 9.38479V8.61896C15.7508 8.0849 15.318 7.6521 14.7839 7.6521H14.7336C14.3586 7.6521 14.0181 7.42633 13.8808 7.07754C13.865 7.03703 13.8485 6.99728 13.832 6.95752C13.6745 6.58398 13.7585 6.15418 14.0451 5.86765V5.86765C14.4224 5.49036 14.4224 4.87754 14.0451 4.50025L13.5035 3.95869C13.1262 3.5814 12.5134 3.5814 12.1361 3.95869V3.95869C11.8496 4.24522 11.4198 4.32923 11.0462 4.17171C11.0065 4.15521 10.9667 4.13871 10.9262 4.12296C10.5767 3.98344 10.3509 3.64215 10.3509 3.26711V3.21686C10.3509 2.6828 9.9181 2.25 9.38404 2.25H8.61821C8.0834 2.25 7.6506 2.6828 7.6506 3.21686V3.26711C7.6506 3.64215 7.42483 3.98269 7.07604 4.11996C7.03553 4.13646 6.99578 4.15221 6.95602 4.16946C6.58248 4.32698 6.15268 4.24297 5.86615 3.95644V3.95644C5.48886 3.57915 4.87604 3.57915 4.49875 3.95644L3.95644 4.498C3.57915 4.87529 3.57915 5.48811 3.95644 5.8654V5.8654C4.24297 6.15193 4.32698 6.58173 4.16946 6.95527C4.15221 6.99578 4.13646 7.03553 4.12071 7.07604C3.98344 7.42483 3.64215 7.6506 3.26711 7.6506H3.21686C2.6828 7.6506 2.25 8.0834 2.25 8.61746V9.38329C2.25 9.9181 2.6828 10.3509 3.21686 10.3509H3.26711C3.64215 10.3509 3.98269 10.5767 4.11996 10.9255C4.13571 10.966 4.15221 11.0057 4.16871 11.0455C4.32623 11.419 4.24222 11.8488 3.95569 12.1353V12.1353C3.5784 12.5126 3.5784 13.1255 3.95569 13.5028L4.49725 14.0443C4.87454 14.4216 5.48736 14.4216 5.86465 14.0443V14.0443C6.15118 13.7578 6.58098 13.6738 6.95452 13.8313C6.99428 13.8478 7.03403 13.8643 7.07454 13.88C7.42408 14.0173 7.6491 14.3578 7.6491 14.7329V14.7831C7.6491 15.3172 8.0819 15.75 8.61596 15.75H9.38179C9.91585 15.75 10.3487 15.3172 10.3487 14.7831V14.7329C10.3487 14.3578 10.5744 14.0173 10.9232 13.88C10.9637 13.8643 11.0035 13.8478 11.0432 13.8313C11.419 13.6745 11.8488 13.7585 12.1361 14.0451V14.0451Z" stroke="#0D5EAF" stroke-width="1.5" stroke-linecap="round" stroke-linejoin="round"/>
</svg>
