<svg width="18" height="18" viewBox="0 0 18 18" fill="none" xmlns="http://www.w3.org/2000/svg">
<path fill-rule="evenodd" clip-rule="evenodd" d="M8.10824 13.4626L14.7416 6.82924C15.0471 6.52372 15.5417 6.52372 15.8465 6.82924L16.6888 7.6716C16.9944 7.97713 16.9944 8.47176 16.6888 8.77651L10.0539 15.4114C9.84843 15.6169 9.58978 15.7607 9.30769 15.8271L8.01994 16.1311C7.64174 16.2202 7.30182 15.881 7.39012 15.5021L7.69175 14.212C7.75817 13.9283 7.90273 13.6689 8.10824 13.4626V13.4626Z" stroke="#0D5EAF" stroke-width="1.5" stroke-linecap="round" stroke-linejoin="round"/>
<path d="M13.4991 8.06543L15.4526 10.0189" stroke="#0D5EAF" stroke-width="1.5" stroke-linecap="round" stroke-linejoin="round"/>
<path d="M5.27101 16.2468H5.15302C3.06041 16.2468 1.36398 14.5504 1.36398 12.4578V12.4578C1.36398 10.9606 2.24541 9.60331 3.61443 8.99537L6.7088 7.6201C7.73556 7.16376 8.39663 6.14637 8.39663 5.02349V5.02349C8.39663 3.45365 7.1245 2.18152 5.55466 2.18152H5.27101" stroke="#0D5EAF" stroke-width="1.5" stroke-linecap="round" stroke-linejoin="round"/>
</svg>
