<svg width="18" height="18" viewBox="0 0 18 18" fill="none" xmlns="http://www.w3.org/2000/svg">
<path fill-rule="evenodd" clip-rule="evenodd" d="M14.6883 16.3135H3.31174C2.41381 16.3135 1.68652 15.5862 1.68652 14.6883V3.31174C1.68652 2.41381 2.41381 1.68652 3.31174 1.68652H14.6883C15.5862 1.68652 16.3135 2.41381 16.3135 3.31174V14.6883C16.3135 15.5862 15.5862 16.3135 14.6883 16.3135Z" stroke="#0D5EAF" stroke-width="1.5" stroke-linecap="round" stroke-linejoin="round"/>
<path d="M13.063 5.74957H8.18738" stroke="#0D5EAF" stroke-width="1.5" stroke-linecap="round" stroke-linejoin="round"/>
<path d="M8.18738 9.00005H13.063" stroke="#0D5EAF" stroke-width="1.5" stroke-linecap="round" stroke-linejoin="round"/>
<path d="M8.18738 12.2504H13.063" stroke="#0D5EAF" stroke-width="1.5" stroke-linecap="round" stroke-linejoin="round"/>
<path d="M4.93533 5.54641C4.82319 5.54641 4.73218 5.63743 4.7338 5.74957C4.7338 5.86171 4.82481 5.95272 4.93695 5.95272C5.04909 5.95272 5.14011 5.86171 5.14011 5.74957C5.14011 5.63743 5.04909 5.54641 4.93533 5.54641" stroke="#0D5EAF" stroke-width="1.5" stroke-linecap="round" stroke-linejoin="round"/>
<path d="M5.24851 8.8125C5.14501 8.8125 5.06101 8.8965 5.06251 9C5.06251 9.1035 5.14651 9.1875 5.25001 9.1875C5.35351 9.1875 5.43751 9.1035 5.43751 9C5.43751 8.8965 5.35351 8.8125 5.24851 8.8125" stroke="#0D5EAF" stroke-width="1.5" stroke-linecap="round" stroke-linejoin="round"/>
<path d="M4.93533 12.0473C4.82319 12.0473 4.73218 12.1383 4.7338 12.2504C4.7338 12.3626 4.82481 12.4536 4.93695 12.4536C5.04909 12.4536 5.14011 12.3626 5.14011 12.2504C5.14011 12.1383 5.04909 12.0473 4.93533 12.0473" stroke="#0D5EAF" stroke-width="1.5" stroke-linecap="round" stroke-linejoin="round"/>
</svg>
