<svg width="18" height="18" viewBox="0 0 18 18" fill="none" xmlns="http://www.w3.org/2000/svg">
<path d="M14.7669 7.71846C14.7669 12.2038 9.00002 16.0485 9.00002 16.0485C9.00002 16.0485 3.23309 12.2038 3.23309 7.71846C3.23309 6.18898 3.84068 4.72214 4.92219 3.64063C6.00369 2.55912 7.47053 1.95154 9.00002 1.95154C10.5295 1.95154 11.9963 2.55912 13.0778 3.64063C14.1594 4.72214 14.7669 6.18898 14.7669 7.71846Z" stroke="#0D5EAF" stroke-width="1.5" stroke-linecap="round" stroke-linejoin="round"/>
<path d="M9.00001 9.64076C10.0617 9.64076 10.9223 8.78011 10.9223 7.71845C10.9223 6.65679 10.0617 5.79614 9.00001 5.79614C7.93834 5.79614 7.0777 6.65679 7.0777 7.71845C7.0777 8.78011 7.93834 9.64076 9.00001 9.64076Z" stroke="#0D5EAF" stroke-width="1.5" stroke-linecap="round" stroke-linejoin="round"/>
</svg>
