<svg width="18" height="18" viewBox="0 0 18 18" fill="none" xmlns="http://www.w3.org/2000/svg">
<mask id="path-1-inside-1_61_445" fill="white">
<path d="M8.43015 6.15078C8.43015 5.83606 8.68528 5.58093 9 5.58093C9.31472 5.58093 9.56985 5.83606 9.56985 6.15078V9.56989C9.56985 9.88461 9.31472 10.1397 9 10.1397C8.68528 10.1397 8.43015 9.8846 8.43015 9.56989V6.15078Z"/>
</mask>
<path d="M8.43015 6.15078C8.43015 5.83606 8.68528 5.58093 9 5.58093C9.31472 5.58093 9.56985 5.83606 9.56985 6.15078V9.56989C9.56985 9.88461 9.31472 10.1397 9 10.1397C8.68528 10.1397 8.43015 9.8846 8.43015 9.56989V6.15078Z" fill="#0D5EAF"/>
<path d="M8.06985 6.15078V9.56989H11.0698V6.15078H8.06985ZM9.93015 9.56989V6.15078H6.93015V9.56989H9.93015ZM9 8.63974C9.5137 8.63974 9.93015 9.05618 9.93015 9.56989H6.93015C6.93015 10.713 7.85685 11.6397 9 11.6397V8.63974ZM8.06985 9.56989C8.06985 9.05618 8.48629 8.63974 9 8.63974V11.6397C10.1431 11.6397 11.0698 10.713 11.0698 9.56989H8.06985ZM9 7.08093C8.48629 7.08093 8.06985 6.66449 8.06985 6.15078H11.0698C11.0698 5.00764 10.1431 4.08093 9 4.08093V7.08093ZM9 4.08093C7.85685 4.08093 6.93015 5.00763 6.93015 6.15078H9.93015C9.93015 6.66449 9.5137 7.08093 9 7.08093V4.08093Z" fill="#0D5EAF" mask="url(#path-1-inside-1_61_445)"/>
<mask id="path-3-inside-2_61_445" fill="white">
<path d="M11.2794 8.4302C11.2794 8.11548 11.5345 7.86035 11.8492 7.86035C12.164 7.86035 12.4191 8.11548 12.4191 8.4302V9.5699C12.4191 9.88462 12.164 10.1398 11.8492 10.1398C11.5345 10.1398 11.2794 9.88462 11.2794 9.5699V8.4302Z"/>
</mask>
<path d="M11.2794 8.4302C11.2794 8.11548 11.5345 7.86035 11.8492 7.86035C12.164 7.86035 12.4191 8.11548 12.4191 8.4302V9.5699C12.4191 9.88462 12.164 10.1398 11.8492 10.1398C11.5345 10.1398 11.2794 9.88462 11.2794 9.5699V8.4302Z" fill="#0D5EAF"/>
<path d="M10.9191 8.4302V9.5699H13.9191V8.4302H10.9191ZM12.7794 9.5699V8.4302H9.77939V9.5699H12.7794ZM11.8492 8.63975C12.3629 8.63975 12.7794 9.05619 12.7794 9.5699H9.77939C9.77939 10.7131 10.7061 11.6398 11.8492 11.6398V8.63975ZM10.9191 9.5699C10.9191 9.05619 11.3355 8.63975 11.8492 8.63975V11.6398C12.9924 11.6398 13.9191 10.7131 13.9191 9.5699H10.9191ZM11.8492 9.36035C11.3355 9.36035 10.9191 8.94391 10.9191 8.4302H13.9191C13.9191 7.28705 12.9924 6.36035 11.8492 6.36035V9.36035ZM11.8492 6.36035C10.7061 6.36035 9.77939 7.28705 9.77939 8.4302H12.7794C12.7794 8.94391 12.3629 9.36035 11.8492 9.36035V6.36035Z" fill="#0D5EAF" mask="url(#path-3-inside-2_61_445)"/>
<path d="M5.5809 7.29043C5.5809 6.97571 5.83603 6.72058 6.15075 6.72058C6.46547 6.72058 6.7206 6.97571 6.7206 7.29043V9.56983C6.7206 9.88455 6.46547 10.1397 6.15075 10.1397C5.83603 10.1397 5.5809 9.88455 5.5809 9.56983V7.29043Z" fill="#0D5EAF"/>
<path d="M14.1286 2.1618H9.56983V1.02209H8.43013V2.1618H3.87133C3.56906 2.1618 3.27917 2.28187 3.06544 2.49561C2.8517 2.70934 2.73163 2.99923 2.73163 3.3015V11.2794C2.73163 11.5817 2.8517 11.8716 3.06544 12.0853C3.27917 12.299 3.56906 12.4191 3.87133 12.4191H8.43013V15.8382H6.15073V16.9779H11.8492V15.8382H9.56983V12.4191H14.1286C14.4309 12.4191 14.7208 12.299 14.9345 12.0853C15.1483 11.8716 15.2683 11.5817 15.2683 11.2794V3.3015C15.2683 2.99923 15.1483 2.70934 14.9345 2.49561C14.7208 2.28187 14.4309 2.1618 14.1286 2.1618ZM14.1286 11.2794H3.87133V3.3015H14.1286V11.2794Z" fill="#0D5EAF"/>
</svg>
