<svg width="18" height="18" viewBox="0 0 18 18" fill="none" xmlns="http://www.w3.org/2000/svg">
<path fill-rule="evenodd" clip-rule="evenodd" d="M13.4793 3.5625C13.6837 3.5625 13.8798 3.64371 14.0244 3.78827C14.1689 3.93283 14.2501 4.1289 14.2501 4.33333V13.6667C14.2501 13.8711 14.1689 14.0672 14.0244 14.2117C13.8798 14.3563 13.6837 14.4375 13.4793 14.4375H10.8126C10.502 14.4375 10.2501 14.6893 10.2501 15C10.2501 15.3107 10.502 15.5625 10.8126 15.5625H13.4793C13.9821 15.5625 14.4643 15.3628 14.8198 15.0072C15.1754 14.6517 15.3751 14.1695 15.3751 13.6667V4.33333C15.3751 3.83053 15.1754 3.34831 14.8198 2.99278C14.4643 2.63724 13.9821 2.4375 13.4793 2.4375H10.8126C10.502 2.4375 10.2501 2.68934 10.2501 3C10.2501 3.31066 10.502 3.5625 10.8126 3.5625H13.4793ZM6.54362 5.269C6.32395 5.04933 5.9678 5.04933 5.74813 5.269L2.4218 8.59533C2.31587 8.69762 2.25 8.84112 2.25 9C2.25 9.07872 2.26617 9.15365 2.29537 9.22168C2.32276 9.28566 2.36257 9.3456 2.41479 9.39783L5.74813 12.7312C5.9678 12.9508 6.32395 12.9508 6.54362 12.7312C6.76329 12.5115 6.76329 12.1553 6.54362 11.9357L4.17045 9.5625H10.8125C11.1232 9.5625 11.375 9.31066 11.375 9C11.375 8.68934 11.1232 8.4375 10.8125 8.4375H4.17062L6.54362 6.0645C6.76329 5.84483 6.76329 5.48867 6.54362 5.269Z" fill="#0D5EAF"/>
</svg>
