<svg width="18" height="18" viewBox="0 0 18 18" fill="none" xmlns="http://www.w3.org/2000/svg">
<path d="M11.4012 8.31067C12.0182 8.31067 12.61 8.5558 13.0464 8.99212C13.4827 9.42845 13.7278 10.0202 13.7278 10.6373" stroke="#0D5EAF" stroke-width="1.5" stroke-linecap="round" stroke-linejoin="round"/>
<path d="M12.0906 5.5531C13.1876 5.5531 14.2396 5.98888 15.0153 6.76457C15.791 7.54027 16.2268 8.59233 16.2268 9.68933" stroke="#0D5EAF" stroke-width="1.5" stroke-linecap="round" stroke-linejoin="round"/>
<path d="M12.0906 15.2043V13.8256C12.0906 13.0943 11.8001 12.3929 11.2829 11.8758C10.7658 11.3586 10.0644 11.0681 9.33309 11.0681H4.50749C3.77616 11.0681 3.07478 11.3586 2.55765 11.8758C2.04052 12.3929 1.75 13.0943 1.75 13.8256V15.2043" stroke="#0D5EAF" stroke-width="1.5" stroke-linecap="round" stroke-linejoin="round"/>
<path d="M6.92027 8.31063C8.44319 8.31063 9.67775 7.07606 9.67775 5.55314C9.67775 4.03022 8.44319 2.79565 6.92027 2.79565C5.39735 2.79565 4.16278 4.03022 4.16278 5.55314C4.16278 7.07606 5.39735 8.31063 6.92027 8.31063Z" stroke="#0D5EAF" stroke-width="1.5" stroke-linecap="round" stroke-linejoin="round"/>
</svg>
